<?xml version="1.0" standalone="no"?>
<!DOCTYPE svg PUBLIC "-//W3C//DTD SVG 20010904//EN"
 "http://www.w3.org/TR/2001/REC-SVG-20010904/DTD/svg10.dtd">
<svg version="1.0" xmlns="http://www.w3.org/2000/svg"
 width="194.000000pt" height="194.000000pt" viewBox="0 0 194.000000 194.000000"
 preserveAspectRatio="xMidYMid meet">
<metadata>
Created by potrace 1.11, written by Peter Selinger 2001-2013
</metadata>
<g transform="translate(0.000000,194.000000) scale(0.100000,-0.100000)"
fill="#000000" stroke="none">
<path d="M961 1801 c-6 -10 -14 -44 -19 -74 -5 -34 -20 -72 -36 -96 -22 -32
-26 -46 -21 -74 5 -26 2 -44 -11 -66 -18 -30 -18 -32 0 -65 17 -32 17 -36 2
-57 -21 -30 -20 -58 1 -81 11 -13 16 -33 14 -60 -1 -30 4 -47 19 -63 21 -22
20 -22 -67 6 -48 15 -144 41 -213 57 -69 16 -174 48 -234 71 -60 22 -111 39
-113 37 -3 -2 16 -21 41 -42 28 -23 41 -41 35 -45 -17 -10 -4 -40 60 -136 99
-152 222 -288 318 -355 27 -18 77 -42 112 -54 l65 -21 -63 -49 c-108 -85 -240
-161 -407 -234 -171 -75 -232 -115 -221 -143 5 -12 19 -17 49 -17 24 -1 54 -7
68 -15 38 -21 82 -18 136 11 27 14 64 27 84 28 19 2 57 17 85 35 70 45 136 67
255 86 351 55 453 94 595 227 78 73 100 107 139 217 31 86 31 86 86 113 l55
26 -27 11 c-15 5 -38 28 -52 49 -70 111 -153 108 -259 -9 -37 -41 -50 -50 -60
-40 -8 8 -14 64 -17 164 -7 200 -18 221 -205 417 -74 77 -97 108 -120 165 -41
100 -54 114 -74 76z"/>
</g>
</svg>
